G04*
G04 #@! TF.GenerationSoftware,Altium Limited,Altium Designer,22.5.1 (42)*
G04*
G04 Layer_Physical_Order=2*
G04 Layer_Color=16711680*
%FSLAX25Y25*%
%MOIN*%
G70*
G04*
G04 #@! TF.SameCoordinates,1AC7F1D8-2E53-444E-B665-E992B51DBB98*
G04*
G04*
G04 #@! TF.FilePolarity,Positive*
G04*
G01*
G75*
%ADD21C,0.06181*%
%ADD22R,0.06181X0.06181*%
%ADD23R,0.06181X0.06181*%
%ADD24C,0.01968*%
%ADD27C,0.01000*%
%ADD29C,0.05000*%
D21*
X370500Y321500D02*
D03*
X393000Y321000D02*
D03*
X370500Y287500D02*
D03*
X393000Y298000D02*
D03*
D22*
X380500Y321500D02*
D03*
Y287500D02*
D03*
D23*
X393000Y311000D02*
D03*
Y288000D02*
D03*
D24*
X380165Y301500D02*
D03*
X375835D02*
D03*
X358331Y313165D02*
D03*
Y308835D02*
D03*
X354000Y313165D02*
D03*
Y308835D02*
D03*
X349669Y313165D02*
D03*
Y308835D02*
D03*
D27*
X370500Y287342D02*
Y305500D01*
X367000Y309000D02*
X370500Y305500D01*
X339146Y304041D02*
Y306146D01*
Y304041D02*
X339235Y303953D01*
Y300765D02*
Y303953D01*
X340000Y306500D02*
X348491D01*
X339500D02*
X340000D01*
X339235Y300765D02*
X340000Y300000D01*
X339146Y306146D02*
X339500Y306500D01*
X348491D02*
X348640Y306350D01*
X358331Y313165D02*
X362165D01*
X370500Y321500D01*
X363000Y310657D02*
X365343Y313000D01*
X359360Y306350D02*
X363000Y309991D01*
Y310657D01*
X368000Y313000D02*
X371000Y316000D01*
X388000D02*
X393000Y321000D01*
X371000Y316000D02*
X388000D01*
X385500Y295500D02*
X393000Y288000D01*
X383500Y310500D02*
X385500Y308500D01*
Y295500D02*
Y308500D01*
X391500Y287000D02*
X395000D01*
X365343Y313000D02*
X368000D01*
X348640Y306350D02*
X359360D01*
D29*
X340000Y300000D02*
D03*
X367000Y309000D02*
D03*
X383500Y310500D02*
D03*
M02*
