G04*
G04 #@! TF.GenerationSoftware,Altium Limited,Altium Designer,22.5.1 (42)*
G04*
G04 Layer_Color=65535*
%FSLAX25Y25*%
%MOIN*%
G70*
G04*
G04 #@! TF.SameCoordinates,1AC7F1D8-2E53-444E-B665-E992B51DBB98*
G04*
G04*
G04 #@! TF.FilePolarity,Positive*
G04*
G01*
G75*
%ADD10C,0.00984*%
%ADD11C,0.00787*%
%ADD12C,0.00200*%
D10*
X375539Y294512D02*
X374801Y294938D01*
Y294086D01*
X375539Y294512D01*
X388295Y321500D02*
X387557Y321926D01*
Y321074D01*
X388295Y321500D01*
X393492Y303697D02*
X392754Y304123D01*
Y303271D01*
X393492Y303697D01*
X388295Y287500D02*
X387557Y287926D01*
Y287074D01*
X388295Y287500D01*
X393492Y280697D02*
X392754Y281123D01*
Y280271D01*
X393492Y280697D01*
X343646Y301354D02*
X342908Y301781D01*
Y300928D01*
X343646Y301354D01*
D11*
X382921Y297366D02*
Y305634D01*
X373079Y297366D02*
Y305634D01*
X386248Y316244D02*
Y326756D01*
X364752D02*
X386248D01*
X364752Y316244D02*
Y326756D01*
Y316244D02*
X386248D01*
X387744Y305252D02*
X398256D01*
Y326748D01*
X387744D02*
X398256D01*
X387744Y305252D02*
Y326748D01*
X386248Y282244D02*
Y292756D01*
X364752D02*
X386248D01*
X364752Y282244D02*
Y292756D01*
Y282244D02*
X386248D01*
X387744Y282252D02*
X398256D01*
Y303748D01*
X387744D02*
X398256D01*
X387744Y282252D02*
Y303748D01*
X363843Y306276D02*
Y315724D01*
X344158Y306276D02*
Y315724D01*
D12*
X362333Y327500D02*
X362000D01*
X362167D01*
Y326667D01*
X362000Y326500D01*
X361834D01*
X361667Y326667D01*
X363166Y326500D02*
Y327500D01*
X362667Y327000D01*
X363333D01*
X385333Y327000D02*
X385000D01*
X385167D01*
Y326167D01*
X385000Y326000D01*
X384834D01*
X384667Y326167D01*
X386333Y326000D02*
X385667D01*
X386333Y326667D01*
Y326833D01*
X386167Y327000D01*
X385833D01*
X385667Y326833D01*
X362333Y284000D02*
X362000D01*
X362167D01*
Y283167D01*
X362000Y283000D01*
X361834D01*
X361667Y283167D01*
X362667Y283833D02*
X362833Y284000D01*
X363166D01*
X363333Y283833D01*
Y283667D01*
X363166Y283500D01*
X363000D01*
X363166D01*
X363333Y283333D01*
Y283167D01*
X363166Y283000D01*
X362833D01*
X362667Y283167D01*
X385500Y295500D02*
X385167D01*
X385333D01*
Y294667D01*
X385167Y294500D01*
X385000D01*
X384834Y294667D01*
X385833Y294500D02*
X386167D01*
X386000D01*
Y295500D01*
X385833Y295333D01*
M02*
