G04*
G04 #@! TF.GenerationSoftware,Altium Limited,Altium Designer,22.5.1 (42)*
G04*
G04 Layer_Color=8388736*
%FSLAX25Y25*%
%MOIN*%
G70*
G04*
G04 #@! TF.SameCoordinates,1AC7F1D8-2E53-444E-B665-E992B51DBB98*
G04*
G04*
G04 #@! TF.FilePolarity,Negative*
G04*
G01*
G75*
G04:AMPARAMS|DCode=13|XSize=19.68mil|YSize=9.84mil|CornerRadius=1.97mil|HoleSize=0mil|Usage=FLASHONLY|Rotation=90.000|XOffset=0mil|YOffset=0mil|HoleType=Round|Shape=RoundedRectangle|*
%AMROUNDEDRECTD13*
21,1,0.01968,0.00591,0,0,90.0*
21,1,0.01575,0.00984,0,0,90.0*
1,1,0.00394,0.00295,0.00787*
1,1,0.00394,0.00295,-0.00787*
1,1,0.00394,-0.00295,-0.00787*
1,1,0.00394,-0.00295,0.00787*
%
%ADD13ROUNDEDRECTD13*%
G04:AMPARAMS|DCode=17|XSize=35.43mil|YSize=62.99mil|CornerRadius=1.95mil|HoleSize=0mil|Usage=FLASHONLY|Rotation=90.000|XOffset=0mil|YOffset=0mil|HoleType=Round|Shape=RoundedRectangle|*
%AMROUNDEDRECTD17*
21,1,0.03543,0.05909,0,0,90.0*
21,1,0.03154,0.06299,0,0,90.0*
1,1,0.00390,0.02955,0.01577*
1,1,0.00390,0.02955,-0.01577*
1,1,0.00390,-0.02955,-0.01577*
1,1,0.00390,-0.02955,0.01577*
%
%ADD17ROUNDEDRECTD17*%
%ADD18R,0.04540X0.03950*%
%ADD19R,0.13005X0.10288*%
%ADD20O,0.03162X0.07493*%
%ADD21C,0.06181*%
%ADD22R,0.06181X0.06181*%
%ADD23R,0.06181X0.06181*%
%ADD24C,0.01968*%
%ADD25C,0.05800*%
%ADD26C,0.02769*%
D13*
X375047Y305240D02*
D03*
X377016D02*
D03*
X378984D02*
D03*
X380953D02*
D03*
Y297760D02*
D03*
X378984D02*
D03*
X377016D02*
D03*
X375047D02*
D03*
D17*
X378000Y301500D02*
D03*
D18*
X341500Y285941D02*
D03*
Y291059D02*
D03*
D19*
X354000Y311000D02*
D03*
D20*
X361500Y320646D02*
D03*
X356500D02*
D03*
X351500D02*
D03*
X346500D02*
D03*
X361500Y301354D02*
D03*
X356500D02*
D03*
X351500D02*
D03*
X346500D02*
D03*
D21*
X370500Y321500D02*
D03*
X393000Y321000D02*
D03*
X370500Y287500D02*
D03*
X393000Y298000D02*
D03*
D22*
X380500Y321500D02*
D03*
Y287500D02*
D03*
D23*
X393000Y311000D02*
D03*
Y288000D02*
D03*
D24*
X380165Y301500D02*
D03*
X375835D02*
D03*
D25*
X340000Y300000D02*
D03*
X367000Y309000D02*
D03*
X383500Y310500D02*
D03*
D26*
X358331Y313165D02*
D03*
Y308835D02*
D03*
X354000Y313165D02*
D03*
Y308835D02*
D03*
X349669Y313165D02*
D03*
Y308835D02*
D03*
M02*
