G04*
G04 #@! TF.GenerationSoftware,Altium Limited,Altium Designer,22.5.1 (42)*
G04*
G04 Layer_Color=8421504*
%FSLAX25Y25*%
%MOIN*%
G70*
G04*
G04 #@! TF.SameCoordinates,1AC7F1D8-2E53-444E-B665-E992B51DBB98*
G04*
G04*
G04 #@! TF.FilePolarity,Positive*
G04*
G01*
G75*
G04:AMPARAMS|DCode=13|XSize=19.68mil|YSize=9.84mil|CornerRadius=1.97mil|HoleSize=0mil|Usage=FLASHONLY|Rotation=90.000|XOffset=0mil|YOffset=0mil|HoleType=Round|Shape=RoundedRectangle|*
%AMROUNDEDRECTD13*
21,1,0.01968,0.00591,0,0,90.0*
21,1,0.01575,0.00984,0,0,90.0*
1,1,0.00394,0.00295,0.00787*
1,1,0.00394,0.00295,-0.00787*
1,1,0.00394,-0.00295,-0.00787*
1,1,0.00394,-0.00295,0.00787*
%
%ADD13ROUNDEDRECTD13*%
%ADD14R,0.03740X0.03150*%
%ADD15R,0.12205X0.09488*%
%ADD16O,0.02362X0.06693*%
G36*
X375047Y299728D02*
X375008D01*
X374936Y299758D01*
X374880Y299814D01*
X374850Y299886D01*
Y299925D01*
D01*
Y303075D01*
Y303114D01*
X374880Y303186D01*
X374936Y303242D01*
X375008Y303272D01*
X375047D01*
D01*
X377410D01*
X377449D01*
X377521Y303242D01*
X377576Y303186D01*
X377606Y303114D01*
Y303075D01*
D01*
Y299925D01*
Y299886D01*
X377576Y299814D01*
X377521Y299758D01*
X377449Y299728D01*
X377410D01*
D01*
X375047D01*
D02*
G37*
G36*
X378590D02*
X378551D01*
X378479Y299758D01*
X378424Y299814D01*
X378394Y299886D01*
Y299925D01*
D01*
Y303075D01*
Y303114D01*
X378424Y303186D01*
X378479Y303242D01*
X378551Y303272D01*
X378590D01*
D01*
X380953D01*
X380992D01*
X381064Y303242D01*
X381120Y303186D01*
X381150Y303114D01*
Y303075D01*
D01*
Y299925D01*
Y299886D01*
X381120Y299814D01*
X381064Y299758D01*
X380992Y299728D01*
X380953D01*
D01*
X378590D01*
D02*
G37*
D13*
X375047Y305240D02*
D03*
X377016D02*
D03*
X378984D02*
D03*
X380953D02*
D03*
Y297760D02*
D03*
X378984D02*
D03*
X377016D02*
D03*
X375047D02*
D03*
D14*
X341500Y285941D02*
D03*
Y291059D02*
D03*
D15*
X354000Y311000D02*
D03*
D16*
X361500Y320646D02*
D03*
X356500D02*
D03*
X351500D02*
D03*
X346500D02*
D03*
X361500Y301354D02*
D03*
X356500D02*
D03*
X351500D02*
D03*
X346500D02*
D03*
M02*
